<!-- Generator: Adobe Illustrator 24.1.0, SVG Export Plug-In  -->
<svg version="1.1" xmlns="http://www.w3.org/2000/svg" xmlns:xlink="http://www.w3.org/1999/xlink" x="0px" y="0px" width="19.62px"
     height="21.81px" viewBox="0 0 19.62 21.81" style="enable-background:new 0 0 19.62 21.81;" xml:space="preserve">
<style type="text/css">
	.st0{fill:#B5B5B5;}
</style>
    <defs>
</defs>
    <path class="st0" d="M17.44,2.18h-1.09V0h-2.18v2.18H5.45V0H3.27v2.18H2.18C0.98,2.18,0,3.16,0,4.36v15.26
	c0,1.2,0.98,2.18,2.18,2.18h15.26c1.2,0,2.18-0.98,2.18-2.18V4.36C19.62,3.16,18.64,2.18,17.44,2.18z M17.44,19.62H2.18V8.72h15.26
	V19.62z M2.18,6.54V4.36h15.26v2.18H2.18z M4.36,10.9h10.9v2.18H4.36V10.9z M4.36,15.26h7.63v2.18H4.36V15.26z"/>
</svg>
